<svg width="836" height="834" viewBox="0 0 836 834" fill="none" xmlns="http://www.w3.org/2000/svg">
<circle cx="418" cy="417" r="105.5" stroke="black" stroke-width="71"/>
<path fill-rule="evenodd" clip-rule="evenodd" d="M380 0.704035C166.953 19.9027 0 198.954 0 417C0 635.046 166.953 814.097 380 833.296V761.943C206.235 743.017 71 595.801 71 417C71 238.199 206.235 90.9832 380 72.0568V0.704035ZM457 72.1672C630.284 91.5483 765 238.542 765 417C765 595.458 630.284 742.452 457 761.833V833.205C669.569 813.537 836 634.704 836 417C836 199.296 669.569 20.4633 457 0.795354V72.1672Z" fill="black"/>
<path fill-rule="evenodd" clip-rule="evenodd" d="M418 625C520.247 625 605.264 551.224 622.719 454H694.568C676.469 590.597 559.544 696 418 696C276.456 696 159.531 590.597 141.432 454H213.281C230.736 551.224 315.753 625 418 625ZM213.104 381C230.154 283.283 315.402 209 418 209C520.598 209 605.846 283.283 622.896 381H694.699C677.039 243.917 559.889 138 418 138C276.111 138 158.961 243.917 141.301 381H213.104Z" fill="black"/>
</svg>
